<svg width="70" height="70" viewBox="0 0 70 70" fill="none" xmlns="http://www.w3.org/2000/svg">
<path d="M37.3683 14.9888L43.7238 36.89C44.3894 39.2758 45.0369 41.6665 45.6662 44.0621H45.7392C45.8967 42.9771 46.1621 41.8104 46.5354 40.5504L47.565 37.1204L50.6275 27.0813L51.2487 25.1242C51.4296 24.5438 51.6163 24.01 51.8088 23.5171C52.0071 23.03 52.1908 22.5633 52.3746 22.1229C52.5554 21.6825 52.7596 21.245 52.9958 20.8075V20.7258L48.4196 21.0321V14.9888H63.4958V20.0667C62.4342 20.0667 61.5067 20.4138 60.7075 21.1108C59.8927 21.8255 59.1932 22.6618 58.6338 23.59C58.072 24.5031 57.5908 25.4634 57.1958 26.46C56.9047 27.1919 56.6266 27.929 56.3617 28.6708L47.3317 54.9121H38.92L33.4542 37.975C33.2996 37.5608 33.1042 36.9688 32.8737 36.2075C32.6258 35.3834 32.3857 34.557 32.1533 33.7283C31.9113 32.8329 31.6488 31.9113 31.3804 30.9575C31.1121 30.0008 30.8583 29.0967 30.625 28.2421H30.5492C30.3946 29.3533 30.1408 30.6017 29.7908 31.9842C29.4438 33.3667 29.0821 34.7171 28.7058 36.0325C28.3325 37.3479 27.9825 38.5379 27.6617 39.5996C27.3379 40.6613 27.0958 41.4079 26.9442 41.8483L22.5662 54.9121H14.6913L5.08083 27.3933C4.58638 26.0543 4.12733 24.7024 3.70417 23.3392C3.57235 22.939 3.46232 22.5321 3.37458 22.12L3.10042 20.8804L0 21.035V14.9888H19.0342V20.0667C17.92 20.1454 17.1383 20.4779 16.6833 21.0729C16.2313 21.6679 16.0096 22.4321 16.0096 23.3596C15.9833 23.8 16.0125 24.2667 16.1029 24.7538C16.1997 25.2648 16.3244 25.7701 16.4763 26.2675L19.1479 35.9567C19.46 37.1204 19.7604 38.3425 20.0579 39.62C20.3525 40.8975 20.5946 42.1983 20.7783 43.5167H20.8542L21.245 41.7725C21.5413 40.3774 21.8631 38.9879 22.2104 37.6046C22.4204 36.7938 22.6625 35.8925 22.9513 34.9154L28.7642 14.9888H37.3683ZM70 48.4983C70 50.2249 69.3141 51.8807 68.0933 53.1016C66.8724 54.3225 65.2166 55.0083 63.49 55.0083C61.7634 55.0083 60.1076 54.3225 58.8867 53.1016C57.6659 51.8807 56.98 50.2249 56.98 48.4983C56.98 46.7718 57.6659 45.1159 58.8867 43.8951C60.1076 42.6742 61.7634 41.9883 63.49 41.9883C65.2166 41.9883 66.8724 42.6742 68.0933 43.8951C69.3141 45.1159 70 46.7718 70 48.4983Z" fill="#20FC8F"/>
</svg>
